<svg aria-hidden="true" style="width:0;height:0;position:absolute;overflow:hidden" xmlns="http://www.w3.org/2000/svg"><defs><symbol id="icon-trello" viewBox="0 0 32 32"><path style="fill:var(--color1,#000)" d="M3.125 0h25.75A3.125 3.125 0 0 1 32 3.125v25.75A3.125 3.125 0 0 1 28.875 32H3.125A3.125 3.125 0 0 1 0 28.875V3.125A3.125 3.125 0 0 1 3.125 0z"/><path fill="#fff" style="fill:var(--color2,#fff)" d="M19.58 4.16h6.76a1.5 1.5 0 0 1 1.5 1.5v11a1.5 1.5 0 0 1-1.5 1.5h-6.76a1.5 1.5 0 0 1-1.5-1.5v-11a1.5 1.5 0 0 1 1.5-1.5zM5.66 4.16h6.76a1.5 1.5 0 0 1 1.5 1.5v19a1.5 1.5 0 0 1-1.5 1.5H5.66a1.5 1.5 0 0 1-1.5-1.5v-19a1.5 1.5 0 0 1 1.5-1.5z"/></symbol><symbol id="icon-discord" viewBox="0 0 32 32"><path d="M27.107 5.637a26.098 26.098 0 0 0-6.602-2.075 19.443 19.443 0 0 0-.846 1.756c-2.462-.37-4.9-.37-7.317 0a18.745 18.745 0 0 0-.856-1.756 25.972 25.972 0 0 0-6.607 2.08C.701 11.956-.432 18.112.135 24.182c2.771 2.069 5.457 3.326 8.097 4.149a20.136 20.136 0 0 0 1.734-2.856 17.023 17.023 0 0 1-2.731-1.329 13.3 13.3 0 0 0 .669-.53c5.265 2.463 10.986 2.463 16.189 0 .219.183.443.36.669.53-.866.522-1.782.969-2.736 1.332a20.063 20.063 0 0 0 1.734 2.856c2.643-.823 5.331-2.08 8.102-4.152.664-7.036-1.135-13.136-4.757-18.545zM10.684 20.449c-1.581 0-2.877-1.476-2.877-3.273s1.269-3.275 2.877-3.275c1.608 0 2.905 1.476 2.877 3.275.002 1.797-1.268 3.273-2.877 3.273zm10.632 0c-1.581 0-2.877-1.476-2.877-3.273s1.268-3.275 2.877-3.275c1.608 0 2.904 1.476 2.877 3.275 0 1.797-1.269 3.273-2.877 3.273z"/></symbol></defs></svg>