<svg aria-hidden="true" style="width:0;height:0;position:absolute;overflow:hidden" xmlns="http://www.w3.org/2000/svg"><defs><symbol id="icon-telegram" viewBox="0 0 41 32"><path d="m15.147 19.989-.683 8.896c.96 0 1.387-.384 1.899-.853l4.544-4.053 9.408 6.443c1.728.896 2.944.427 3.413-1.493L39.915 1.9c.555-2.389-.917-3.328-2.603-2.731L.96 12.14c-2.475.896-2.432 2.197-.405 2.773l9.28 2.709L31.424 5.014c1.003-.619 1.941-.277 1.173.341L15.146 19.99z"/></symbol><symbol id="icon-home-pagination" viewBox="0 0 35 32"><path d="M32.613 15.387c.613-.64.56-1.653-.107-2.213L17.733.401c-.667-.56-1.76-.56-2.4.027L.506 13.841a1.517 1.517 0 0 0-.08 2.213l.373.4c.613.613 1.627.693 2.213.16l1.12-.987v14.347c0 .88.72 1.573 1.6 1.573h5.787c.907 0 1.627-.693 1.627-1.573V19.947h7.36v10.027c-.027.88.613 1.573 1.52 1.573h6.107c.907 0 1.627-.693 1.627-1.573V15.841s.293.267.667.587c.4.32 1.173.08 1.787-.587l.4-.453z"/></symbol><symbol id="icon-doubledot-slider" viewBox="0 0 43 32"><path d="M32.008 0c1.928 0 3.752.52 5.464 1.56 1.72 1.04 3.112 2.536 4.184 4.488C42.68 8 43.2 10.296 43.2 12.936c0 2.648-.648 5.232-1.936 7.744-.424.912-1.2 2.08-2.312 3.512a58.7 58.7 0 0 1-3.216 3.704L31.688 32 28.8 27.184a21.962 21.962 0 0 0 5.328-4.68c1.544-1.824 2.32-3.496 2.32-5.016 0-.776-.176-1.408-.52-1.88a8.364 8.364 0 0 1-5.008 1.624c-1.328 0-2.592-.416-3.792-1.232a8.547 8.547 0 0 1-2.96-3.128c-.768-1.256-1.16-2.56-1.16-3.904 0-1.512.456-2.968 1.352-4.352a10.14 10.14 0 0 1 3.408-3.384C29.136.408 30.552 0 32.008 0zM8.928 0c1.936 0 3.752.52 5.472 1.56 1.712 1.04 3.104 2.536 4.176 4.488C19.6 8 20.12 10.296 20.12 12.936c0 1.864-.24 3.536-.712 5.008-.472 1.52-1.28 3.104-2.44 4.752-1.112 1.56-2.168 2.864-3.152 3.904-.984 1.08-2.696 2.88-5.144 5.4l-2.888-4.816a21.999 21.999 0 0 0 5.336-4.68c1.544-1.824 2.312-3.496 2.312-5.016 0-.776-.168-1.408-.512-1.88-1.504 1.08-3.176 1.624-5.016 1.624-1.328 0-2.592-.416-3.792-1.232a8.547 8.547 0 0 1-2.96-3.128C.384 11.616 0 10.312 0 8.968 0 7.456.424 6 1.28 4.616a10.14 10.14 0 0 1 3.408-3.384C6.064.408 7.472 0 8.928 0z"/></symbol><symbol id="icon-close-burgermenu" viewBox="0 0 32 32"><path d="M32 1.885 30.115 0 16 14.115 1.885 0 0 1.885 14.115 16 0 30.115 1.885 32 16 17.885 30.115 32 32 30.115 17.885 16z"/></symbol><symbol id="icon-burger-menu" viewBox="0 0 32 32"><path d="M1.333 14.667h29.333v2.667H1.333v-2.667zM1.333 6.667h29.333v2.667H1.333V6.667zM1.333 22.667h29.333v2.667H1.333v-2.667z"/></symbol><symbol id="icon-arrow-right" viewBox="0 0 32 32"><path d="m19.414 27.414 10-10a2 2 0 0 0 0-2.828l-10-10a2 2 0 1 0-2.828 2.828L23.172 14H4a2 2 0 1 0 0 4h19.172l-6.586 6.586c-.39.39-.586.902-.586 1.414s.195 1.024.586 1.414a2 2 0 0 0 2.828 0z"/></symbol><symbol id="icon-facebook" viewBox="0 0 32 32"><path d="M19 6h5V0h-5c-3.86 0-7 3.14-7 7v3H8v6h4v16h6V16h5l1-6h-6V7c0-.542.458-1 1-1z"/></symbol><symbol id="icon-github" viewBox="0 0 32 32"><path d="M16 .395c-8.836 0-16 7.163-16 16 0 7.069 4.585 13.067 10.942 15.182.8.148 1.094-.347 1.094-.77 0-.381-.015-1.642-.022-2.979-4.452.968-5.391-1.888-5.391-1.888-.728-1.849-1.776-2.341-1.776-2.341-1.452-.993.11-.973.11-.973 1.606.113 2.452 1.649 2.452 1.649 1.427 2.446 3.743 1.739 4.656 1.33.143-1.034.558-1.74 1.016-2.14-3.554-.404-7.29-1.777-7.29-7.907 0-1.747.625-3.174 1.649-4.295-.166-.403-.714-2.03.155-4.234 0 0 1.344-.43 4.401 1.64a15.353 15.353 0 0 1 4.005-.539c1.359.006 2.729.184 4.008.539 3.054-2.07 4.395-1.64 4.395-1.64.871 2.204.323 3.831.157 4.234 1.026 1.12 1.647 2.548 1.647 4.295 0 6.145-3.743 7.498-7.306 7.895.574.497 1.085 1.47 1.085 2.963 0 2.141-.019 3.864-.019 4.391 0 .426.288.925 1.099.768C27.421 29.457 32 23.462 32 16.395c0-8.837-7.164-16-16-16z"/></symbol></defs></svg>