<svg width="54.000000" height="40.000000" viewBox="0 0 54 40" fill="none" xmlns="http://www.w3.org/2000/svg" xmlns:xlink="http://www.w3.org/1999/xlink">
	<desc>
			Created with Pixso.
	</desc>
	<defs/>
	<path id="“" d="M40.01 0C42.42 0 44.7 0.65 46.84 1.95C48.99 3.25 50.73 5.12 52.07 7.56C53.35 10 54 12.87 54 16.17C54 19.48 53.19 22.71 51.58 25.85C51.05 26.99 50.08 28.45 48.69 30.24C47.25 32.03 45.91 33.57 44.67 34.87L39.61 40L36 33.98C38.51 32.41 40.74 30.46 42.66 28.13C44.59 25.85 45.56 23.76 45.56 21.86C45.56 20.89 45.34 20.1 44.91 19.51C43.04 20.86 40.95 21.54 38.65 21.54C36.99 21.54 35.41 21.02 33.91 20C32.35 19.02 31.12 17.72 30.21 16.09C29.25 14.52 28.76 12.89 28.76 11.21C28.76 9.32 29.33 7.5 30.45 5.77C31.52 4.03 32.94 2.62 34.71 1.54C36.42 0.51 38.19 0 40.01 0ZM11.16 0C13.58 0 15.85 0.65 18 1.95C20.14 3.25 21.88 5.12 23.22 7.56C24.5 10 25.15 12.87 25.15 16.17C25.15 18.5 24.85 20.59 24.26 22.43C23.67 24.33 22.66 26.31 21.21 28.37C19.82 30.32 18.5 31.95 17.27 33.25C16.04 34.6 13.9 36.85 10.84 40L7.23 33.98C9.75 32.41 11.97 30.46 13.9 28.13C15.83 25.85 16.79 23.76 16.79 21.86C16.79 20.89 16.58 20.1 16.15 19.51C14.27 20.86 12.18 21.54 9.88 21.54C8.22 21.54 6.64 21.02 5.14 20C3.58 19.02 2.35 17.72 1.44 16.09C0.48 14.52 0 12.89 0 11.21C0 9.32 0.53 7.5 1.6 5.77C2.67 4.03 4.09 2.62 5.86 1.54C7.58 0.51 9.34 0 11.16 0Z" fill="#E1E1E1" fill-opacity="1.000000" fill-rule="nonzero"/>
</svg>
