<svg width="13.000000" height="12.000000" viewBox="0 0 13 12" fill="none" xmlns="http://www.w3.org/2000/svg" xmlns:xlink="http://www.w3.org/1999/xlink">
	<desc>
			Created with Pixso.
	</desc>
	<defs/>
	<path id="Vector" d="M12.23 5.77C12.46 5.53 12.44 5.15 12.19 4.94L6.65 0.15C6.4 -0.06 5.99 -0.06 5.75 0.16L0.19 5.19C-0.06 5.41 -0.07 5.79 0.16 6.02L0.3 6.17C0.53 6.4 0.91 6.43 1.13 6.23L1.55 5.86L1.55 11.24C1.55 11.57 1.82 11.83 2.15 11.83L4.32 11.83C4.66 11.83 4.93 11.57 4.93 11.24L4.93 7.48L7.69 7.48L7.69 11.24C7.68 11.57 7.92 11.83 8.26 11.83L10.55 11.83C10.89 11.83 11.16 11.57 11.16 11.24L11.16 5.94C11.16 5.94 11.27 6.04 11.41 6.16C11.56 6.28 11.85 6.19 12.08 5.94L12.23 5.77Z" fill="#D31342" fill-opacity="1.000000" fill-rule="nonzero"/>
</svg>
