<svg width="21" height="20" fill="none" xmlns="http://www.w3.org/2000/svg"><defs><filter id="a" x="0" y="0" width="20.395" height="19.837" filterUnits="userSpaceOnUse" color-interpolation-filters="sRGB"><feFlood flood-opacity="0" result="BackgroundImageFix"/><feColorMatrix in="SourceAlpha" values="0 0 0 0 0 0 0 0 0 0 0 0 0 0 0 0 0 0 127 0" result="hardAlpha"/><feOffset dy="4"/><feGaussianBlur stdDeviation="1.333"/><feComposite in2="hardAlpha" operator="out" k2="-1" k3="1"/><feColorMatrix values="0 0 0 0 0 0 0 0 0 0 0 0 0 0 0 0 0 0 0.25 0"/><feBlend in2="BackgroundImageFix" result="effect_dropShadow_1"/><feBlend in="SourceGraphic" in2="effect_dropShadow_1" result="shape"/></filter></defs><g filter="url(#a)"><path d="M16.23 5.77c.23-.24.21-.62-.04-.83L10.65.15c-.25-.21-.66-.21-.9.01L4.19 5.19c-.25.22-.26.6-.03.83l.14.15c.23.23.61.26.83.06l.42-.37v5.38c0 .33.27.59.6.59h2.17c.34 0 .61-.26.61-.59V7.48h2.76v3.76c-.01.33.23.59.57.59h2.29c.34 0 .61-.26.61-.59v-5.3s.11.1.25.22c.15.12.44.03.67-.22l.15-.17Z" fill="#D31342"/></g></svg>