<svg width="54" height="40" fill="none" xmlns="http://www.w3.org/2000/svg"><path d="M40.01 0c2.41 0 4.69.65 6.83 1.95 2.15 1.3 3.89 3.17 5.23 5.61C53.35 10 54 12.87 54 16.17c0 3.31-.81 6.54-2.42 9.68-.53 1.14-1.5 2.6-2.89 4.39-1.44 1.79-2.78 3.33-4.02 4.63L39.61 40 36 33.98c2.51-1.57 4.74-3.52 6.66-5.85 1.93-2.28 2.9-4.37 2.9-6.27 0-.97-.22-1.76-.65-2.35-1.87 1.35-3.96 2.03-6.26 2.03-1.66 0-3.24-.52-4.74-1.54-1.56-.98-2.79-2.28-3.7-3.91-.96-1.57-1.45-3.2-1.45-4.88 0-1.89.57-3.71 1.69-5.44 1.07-1.74 2.49-3.15 4.26-4.23C36.42.51 38.19 0 40.01 0ZM11.16 0c2.42 0 4.69.65 6.84 1.95 2.14 1.3 3.88 3.17 5.22 5.61 1.28 2.44 1.93 5.31 1.93 8.61 0 2.33-.3 4.42-.89 6.26-.59 1.9-1.6 3.88-3.05 5.94-1.39 1.95-2.71 3.58-3.94 4.88-1.23 1.35-3.37 3.6-6.43 6.75l-3.61-6.02c2.52-1.57 4.74-3.52 6.67-5.85 1.93-2.28 2.89-4.37 2.89-6.27 0-.97-.21-1.76-.64-2.35-1.88 1.35-3.97 2.03-6.27 2.03-1.66 0-3.24-.52-4.74-1.54-1.56-.98-2.79-2.28-3.7-3.91C.48 14.52 0 12.89 0 11.21 0 9.32.53 7.5 1.6 5.77c1.07-1.74 2.49-3.15 4.26-4.23C7.58.51 9.34 0 11.16 0Z" fill="#E1E1E1"/></svg>