<svg aria-hidden="true" style="position: absolute; width: 0; height: 0; overflow: hidden;" version="1.1" xmlns="http://www.w3.org/2000/svg" xmlns:xlink="http://www.w3.org/1999/xlink">
<defs>
<symbol id="icon-trello" viewBox="0 0 32 32">
<path fill="#000" style="fill: var(--color1, #000)" d="M3.125 0h25.75c1.726 0 3.125 1.399 3.125 3.125v25.75c0 1.726-1.399 3.125-3.125 3.125h-25.75c-1.726 0-3.125-1.399-3.125-3.125v-25.75c0-1.726 1.399-3.125 3.125-3.125z"></path>
<path fill="#fff" style="fill: var(--color2, #fff)" d="M19.58 4.16h6.76c0.828 0 1.5 0.672 1.5 1.5v11c0 0.828-0.672 1.5-1.5 1.5h-6.76c-0.828 0-1.5-0.672-1.5-1.5v-11c0-0.828 0.672-1.5 1.5-1.5z"></path>
<path fill="#fff" style="fill: var(--color2, #fff)" d="M5.66 4.16h6.76c0.828 0 1.5 0.672 1.5 1.5v19c0 0.828-0.672 1.5-1.5 1.5h-6.76c-0.828 0-1.5-0.672-1.5-1.5v-19c0-0.828 0.672-1.5 1.5-1.5z"></path>
</symbol>
<symbol id="icon-discord-icon" viewBox="0 0 32 32">
<path d="M27.107 5.637c-2.071-0.969-4.286-1.673-6.602-2.075-0.284 0.514-0.617 1.206-0.846 1.756-2.462-0.37-4.9-0.37-7.317 0-0.229-0.55-0.569-1.242-0.856-1.756-2.318 0.401-4.535 1.108-6.607 2.080-4.178 6.314-5.311 12.47-4.744 18.54 2.771 2.069 5.457 3.326 8.097 4.149 0.652-0.897 1.233-1.851 1.734-2.856-0.954-0.362-1.868-0.81-2.731-1.329 0.229-0.17 0.453-0.347 0.669-0.53 5.265 2.463 10.986 2.463 16.189 0 0.219 0.183 0.443 0.36 0.669 0.53-0.866 0.522-1.782 0.969-2.736 1.332 0.501 1.003 1.080 1.959 1.734 2.856 2.643-0.823 5.331-2.080 8.102-4.152 0.664-7.036-1.135-13.136-4.757-18.545zM10.684 20.449c-1.581 0-2.877-1.476-2.877-3.273s1.269-3.275 2.877-3.275c1.608 0 2.905 1.476 2.877 3.275 0.002 1.797-1.268 3.273-2.877 3.273zM21.316 20.449c-1.581 0-2.877-1.476-2.877-3.273s1.268-3.275 2.877-3.275c1.608 0 2.904 1.476 2.877 3.275 0 1.797-1.269 3.273-2.877 3.273z"></path>
</symbol>
</defs>
</svg>
