<svg aria-hidden="true" style="position: absolute; width: 0; height: 0; overflow: hidden;" version="1.1" xmlns="http://www.w3.org/2000/svg" xmlns:xlink="http://www.w3.org/1999/xlink">
<defs>
<symbol id="icon-telegram" viewBox="0 0 41 32">
<path d="M15.147 19.989l-0.683 8.896c0.96 0 1.387-0.384 1.899-0.853l4.544-4.053 9.408 6.443c1.728 0.896 2.944 0.427 3.413-1.493l6.187-27.029c0.555-2.389-0.917-3.328-2.603-2.731l-36.352 12.971c-2.475 0.896-2.432 2.197-0.405 2.773l9.28 2.709 21.589-12.608c1.003-0.619 1.941-0.277 1.173 0.341l-17.451 14.635z"></path>
</symbol>
<symbol id="icon-home-pagination" viewBox="0 0 35 32">
<path d="M32.613 15.387c0.613-0.64 0.56-1.653-0.107-2.213l-14.773-12.773c-0.667-0.56-1.76-0.56-2.4 0.027l-14.827 13.413c-0.667 0.587-0.693 1.6-0.080 2.213l0.373 0.4c0.613 0.613 1.627 0.693 2.213 0.16l1.12-0.987v14.347c0 0.88 0.72 1.573 1.6 1.573h5.787c0.907 0 1.627-0.693 1.627-1.573v-10.027h7.36v10.027c-0.027 0.88 0.613 1.573 1.52 1.573h6.107c0.907 0 1.627-0.693 1.627-1.573v-14.133c0 0 0.293 0.267 0.667 0.587 0.4 0.32 1.173 0.080 1.787-0.587l0.4-0.453z"></path>
</symbol>
<symbol id="icon-doubledot-slider" viewBox="0 0 43 32">
<path d="M32.008 0c1.928 0 3.752 0.52 5.464 1.56 1.72 1.040 3.112 2.536 4.184 4.488 1.024 1.952 1.544 4.248 1.544 6.888 0 2.648-0.648 5.232-1.936 7.744-0.424 0.912-1.2 2.080-2.312 3.512-1.152 1.432-2.224 2.664-3.216 3.704l-4.048 4.104-2.888-4.816c2.008-1.256 3.792-2.816 5.328-4.68 1.544-1.824 2.32-3.496 2.32-5.016 0-0.776-0.176-1.408-0.52-1.88-1.496 1.080-3.168 1.624-5.008 1.624-1.328 0-2.592-0.416-3.792-1.232-1.248-0.784-2.232-1.824-2.96-3.128-0.768-1.256-1.16-2.56-1.16-3.904 0-1.512 0.456-2.968 1.352-4.352 0.856-1.392 1.992-2.52 3.408-3.384 1.368-0.824 2.784-1.232 4.24-1.232zM8.928 0c1.936 0 3.752 0.52 5.472 1.56 1.712 1.040 3.104 2.536 4.176 4.488 1.024 1.952 1.544 4.248 1.544 6.888 0 1.864-0.24 3.536-0.712 5.008-0.472 1.52-1.28 3.104-2.44 4.752-1.112 1.56-2.168 2.864-3.152 3.904-0.984 1.080-2.696 2.88-5.144 5.4l-2.888-4.816c2.016-1.256 3.792-2.816 5.336-4.68 1.544-1.824 2.312-3.496 2.312-5.016 0-0.776-0.168-1.408-0.512-1.88-1.504 1.080-3.176 1.624-5.016 1.624-1.328 0-2.592-0.416-3.792-1.232-1.248-0.784-2.232-1.824-2.96-3.128-0.768-1.256-1.152-2.56-1.152-3.904 0-1.512 0.424-2.968 1.28-4.352 0.856-1.392 1.992-2.52 3.408-3.384 1.376-0.824 2.784-1.232 4.24-1.232z"></path>
</symbol>
<symbol id="icon-close-burgermenu" viewBox="0 0 32 32">
<path d="M32 1.885l-1.885-1.885-14.115 14.115-14.115-14.115-1.885 1.885 14.115 14.115-14.115 14.115 1.885 1.885 14.115-14.115 14.115 14.115 1.885-1.885-14.115-14.115z"></path>
</symbol>
<symbol id="icon-burger-menu" viewBox="0 0 32 32">
<path d="M1.333 14.667h29.333v2.667h-29.333v-2.667z"></path>
<path d="M1.333 6.667h29.333v2.667h-29.333v-2.667z"></path>
<path d="M1.333 22.667h29.333v2.667h-29.333v-2.667z"></path>
</symbol>
<symbol id="icon-arrow-right" viewBox="0 0 32 32">
<path d="M19.414 27.414l10-10c0.781-0.781 0.781-2.047 0-2.828l-10-10c-0.781-0.781-2.047-0.781-2.828 0s-0.781 2.047 0 2.828l6.586 6.586h-19.172c-1.105 0-2 0.895-2 2s0.895 2 2 2h19.172l-6.586 6.586c-0.39 0.39-0.586 0.902-0.586 1.414s0.195 1.024 0.586 1.414c0.781 0.781 2.047 0.781 2.828 0z"></path>
</symbol>
<symbol id="icon-facebook" viewBox="0 0 32 32">
<path d="M19 6h5v-6h-5c-3.86 0-7 3.14-7 7v3h-4v6h4v16h6v-16h5l1-6h-6v-3c0-0.542 0.458-1 1-1z"></path>
</symbol>
<symbol id="icon-github" viewBox="0 0 32 32">
<path d="M16 0.395c-8.836 0-16 7.163-16 16 0 7.069 4.585 13.067 10.942 15.182 0.8 0.148 1.094-0.347 1.094-0.77 0-0.381-0.015-1.642-0.022-2.979-4.452 0.968-5.391-1.888-5.391-1.888-0.728-1.849-1.776-2.341-1.776-2.341-1.452-0.993 0.11-0.973 0.11-0.973 1.606 0.113 2.452 1.649 2.452 1.649 1.427 2.446 3.743 1.739 4.656 1.33 0.143-1.034 0.558-1.74 1.016-2.14-3.554-0.404-7.29-1.777-7.29-7.907 0-1.747 0.625-3.174 1.649-4.295-0.166-0.403-0.714-2.030 0.155-4.234 0 0 1.344-0.43 4.401 1.64 1.276-0.355 2.645-0.532 4.005-0.539 1.359 0.006 2.729 0.184 4.008 0.539 3.054-2.070 4.395-1.64 4.395-1.64 0.871 2.204 0.323 3.831 0.157 4.234 1.026 1.12 1.647 2.548 1.647 4.295 0 6.145-3.743 7.498-7.306 7.895 0.574 0.497 1.085 1.47 1.085 2.963 0 2.141-0.019 3.864-0.019 4.391 0 0.426 0.288 0.925 1.099 0.768 6.354-2.118 10.933-8.113 10.933-15.18 0-8.837-7.164-16-16-16z"></path>
</symbol>
</defs>
</svg>
