<svg aria-hidden="true" style="position: absolute; width: 0; height: 0; overflow: hidden;" version="1.1" xmlns="http://www.w3.org/2000/svg" xmlns:xlink="http://www.w3.org/1999/xlink">
<defs>
<!-- значок фейсбуку -->
<symbol id="icon-facebook" viewBox="0 0 15 32">
<path d="M13.322 15.124h-4.396v16.202h-6.653v-16.202h-3.166v-5.693h3.166v-3.688c0-2.644 1.246-6.771 6.72-6.771l4.935 0.034v5.524h-3.587c-0.589 0-1.415 0.286-1.415 1.549v3.352h4.985l-0.589 5.693z"></path>
</symbol>
<!-- значок гітхабу -->
<symbol id="icon-github" viewBox="0 0 32 32">
<path d="M15.158-0.707c-8.707 0-15.865 7.158-15.865 15.865 0 7.427 5.221 14.164 12.143 15.848v-5.255c-0.691 0.152-1.314 0.152-2.021-0.051-0.926-0.269-1.701-0.893-2.257-1.853-0.371-0.606-0.994-1.263-1.667-1.213l-0.168-1.853c1.448-0.118 2.695 0.876 3.436 2.122 0.32 0.556 0.707 0.876 1.179 1.027 0.472 0.135 0.977 0.067 1.566-0.152 0.152-1.162 0.691-1.6 1.095-2.223v0c-4.126-0.623-5.777-2.813-6.434-4.547-0.859-2.291-0.404-5.154 1.128-6.973 0.034-0.034 0.084-0.118 0.067-0.185-0.707-2.122 0.152-3.874 0.185-4.059 0.808 0.236 0.943-0.236 3.52 1.314l0.438 0.269c0.185 0.118 0.135 0.051 0.32 0.034 1.078-0.286 2.206-0.455 3.318-0.455 1.128 0 2.257 0.168 3.385 0.472l0.135 0.017c0 0 0.051-0.017 0.135-0.067 3.217-1.937 3.099-1.314 3.958-1.583 0.034 0.185 0.876 1.971 0.185 4.059-0.101 0.286 2.796 2.931 1.196 7.158-0.657 1.735-2.307 3.924-6.434 4.547v0c0.539 0.808 1.162 1.229 1.162 2.897v6.552c6.922-1.684 12.143-8.421 12.143-15.848 0-8.707-7.158-15.865-15.848-15.865v0z"></path>
</symbol>
<!-- там де секція проудкція, там зразу йде 3 точки, які ви копіюєте тут -->
<symbol id="icon-products-3dots" viewBox="0 0 139 32">
<path d="M85.333 16c0 8.837-7.163 16-16 16s-16-7.163-16-16c0-8.837 7.163-16 16-16s16 7.163 16 16z"></path>
<path d="M32 16c0 8.837-7.163 16-16 16s-16-7.163-16-16c0-8.837 7.163-16 16-16s16 7.163 16 16z"></path>
<path d="M138.667 16c0 8.837-7.163 16-16 16s-16-7.163-16-16c0-8.837 7.163-16 16-16s16 7.163 16 16z"></path>
</symbol>
<!-- окремо точка для пагінації -->
<symbol id="icon-slider-paginationDot" viewBox="0 0 32 32">
<path d="M32 16c0 8.837-7.163 16-16 16s-16-7.163-16-16c0-8.837 7.163-16 16-16s16 7.163 16 16z"></path>
</symbol>
<!-- ті дві коми які йдуть позаду слайдера -->
<symbol id="icon-slider-svgTwoCommas" viewBox="0 0 43 32">
<path d="M32.008 0c1.928 0 3.752 0.52 5.464 1.56 1.72 1.040 3.112 2.536 4.184 4.488 1.024 1.952 1.544 4.248 1.544 6.888 0 2.648-0.648 5.232-1.936 7.744-0.424 0.912-1.2 2.080-2.312 3.512-1.152 1.432-2.224 2.664-3.216 3.704l-4.048 4.104-2.888-4.816c2.008-1.256 3.792-2.816 5.328-4.68 1.544-1.824 2.32-3.496 2.32-5.016 0-0.776-0.176-1.408-0.52-1.88-1.496 1.080-3.168 1.624-5.008 1.624-1.328 0-2.592-0.416-3.792-1.232-1.248-0.784-2.232-1.824-2.96-3.128-0.768-1.256-1.16-2.56-1.16-3.904 0-1.512 0.456-2.968 1.352-4.352 0.856-1.392 1.992-2.52 3.408-3.384 1.368-0.824 2.784-1.232 4.24-1.232zM8.928 0c1.936 0 3.752 0.52 5.472 1.56 1.712 1.040 3.104 2.536 4.176 4.488 1.024 1.952 1.544 4.248 1.544 6.888 0 1.864-0.24 3.536-0.712 5.008-0.472 1.52-1.28 3.104-2.44 4.752-1.112 1.56-2.168 2.864-3.152 3.904-0.984 1.080-2.696 2.88-5.144 5.4l-2.888-4.816c2.016-1.256 3.792-2.816 5.336-4.68 1.544-1.824 2.312-3.496 2.312-5.016 0-0.776-0.168-1.408-0.512-1.88-1.504 1.080-3.176 1.624-5.016 1.624-1.328 0-2.592-0.416-3.792-1.232-1.248-0.784-2.232-1.824-2.96-3.128-0.768-1.256-1.152-2.56-1.152-3.904 0-1.512 0.424-2.968 1.28-4.352 0.856-1.392 1.992-2.52 3.408-3.384 1.376-0.824 2.784-1.232 4.24-1.232z"></path>
</symbol>
<!-- значок телеграму -->
<symbol id="icon-telegram" viewBox="0 0 41 32">
<path d="M15.147 19.989l-0.683 8.896c0.96 0 1.387-0.384 1.899-0.853l4.544-4.053 9.408 6.443c1.728 0.896 2.944 0.427 3.413-1.493l6.187-27.029c0.555-2.389-0.917-3.328-2.603-2.731l-36.352 12.971c-2.475 0.896-2.432 2.197-0.405 2.773l9.28 2.709 21.589-12.608c1.003-0.619 1.941-0.277 1.173 0.341l-17.451 14.635z"></path>
</symbol>
<!-- значок будиночку (я його замінив трохи) в пагінації  -->
<symbol id="icon-pagination-home" viewBox="0 0 32 32">
<path d="M32 19l-6-6v-9h-4v5l-6-6-16 16v1h4v10h10v-6h4v6h10v-10h4z"></path>
</symbol>
<!-- значок бургер меню  -->
<symbol id="icon-burgerMenu" viewBox="0 0 32 32">
<path d="M2 6h28v6h-28zM2 14h28v6h-28zM2 22h28v6h-28z"></path>
</symbol>
<!-- стрілочка вправо (замінена, бо макет її не надав) -->
<symbol id="icon-arrow-right" viewBox="0 0 32 32">
<path d="M19.414 27.414l10-10c0.781-0.781 0.781-2.047 0-2.828l-10-10c-0.781-0.781-2.047-0.781-2.828 0s-0.781 2.047 0 2.828l6.586 6.586h-19.172c-1.105 0-2 0.895-2 2s0.895 2 2 2h19.172l-6.586 6.586c-0.39 0.39-0.586 0.902-0.586 1.414s0.195 1.024 0.586 1.414c0.781 0.781 2.047 0.781 2.828 0z"></path>
</symbol>
<!-- закриття mobile-menu -->
<symbol id="icon-cross" viewBox="0 0 32 32">
<path d="M31.708 25.708c-0-0-0-0-0-0l-9.708-9.708 9.708-9.708c0-0 0-0 0-0 0.105-0.105 0.18-0.227 0.229-0.357 0.133-0.356 0.057-0.771-0.229-1.057l-4.586-4.586c-0.286-0.286-0.702-0.361-1.057-0.229-0.13 0.048-0.252 0.124-0.357 0.228 0 0-0 0-0 0l-9.708 9.708-9.708-9.708c-0-0-0-0-0-0-0.105-0.104-0.227-0.18-0.357-0.228-0.356-0.133-0.771-0.057-1.057 0.229l-4.586 4.586c-0.286 0.286-0.361 0.702-0.229 1.057 0.049 0.13 0.124 0.252 0.229 0.357 0 0 0 0 0 0l9.708 9.708-9.708 9.708c-0 0-0 0-0 0-0.104 0.105-0.18 0.227-0.229 0.357-0.133 0.355-0.057 0.771 0.229 1.057l4.586 4.586c0.286 0.286 0.702 0.361 1.057 0.229 0.13-0.049 0.252-0.124 0.357-0.229 0-0 0-0 0-0l9.708-9.708 9.708 9.708c0 0 0 0 0 0 0.105 0.105 0.227 0.18 0.357 0.229 0.356 0.133 0.771 0.057 1.057-0.229l4.586-4.586c0.286-0.286 0.362-0.702 0.229-1.057-0.049-0.13-0.124-0.252-0.229-0.357z"></path>
</symbol>
</defs>
</svg>
